<svg width="42" height="42" viewBox="0 0 42 42" fill="none" xmlns="http://www.w3.org/2000/svg">
<path d="M38.5 19.0558L30.7834 16.9479L34.7489 10.0021L31.9996 7.25025L25.3549 11.0443L22.9443 3.5H19.0557L16.7458 10.731L10.0013 7.25025L7.25112 10.0021L10.731 16.7466L3.5 19.0558V22.9443L10.7301 25.2534L7.25025 31.9979L10.0004 34.7498L16.7449 31.269L19.0557 38.5H22.9443L25.2534 31.269L31.9987 34.7498L34.748 31.9979L31.1176 24.9603L38.5 22.9443V19.0558ZM21 28.7779C16.7038 28.7779 13.2221 25.2954 13.2221 21C13.2221 16.7046 16.7038 13.2221 21 13.2221C25.2954 13.2221 28.7779 16.7046 28.7779 21C28.7779 25.2954 25.2954 28.7779 21 28.7779Z" fill="#00263F"/>
<path d="M21 7.875C13.7515 7.875 7.875 13.7515 7.875 21C7.875 28.2485 13.7515 34.125 21 34.125C28.2485 34.125 34.125 28.2485 34.125 21C34.125 13.7515 28.2485 7.875 21 7.875Z" fill="#005C83"/>
<path d="M16.9049 23.5839H14.5066L14.0402 25.375H12.1799L14.9012 16.625H16.5103L19.2499 25.375H17.3722L16.9049 23.5839ZM14.8898 22.113H16.5164L15.7027 18.9927L14.8898 22.113ZM28.8749 25.375H27.1249V16.625H28.8749V25.375ZM21.8837 22.2985V25.375H20.1249V16.625H23.0921C23.9531 16.625 24.6408 16.8928 25.1518 17.43C25.6646 17.9673 25.9209 18.6646 25.9209 19.5212C25.9209 20.3779 25.6672 21.0543 25.1614 21.5521C24.6548 22.05 23.9531 22.2976 23.0562 22.2976H21.8837V22.2985ZM21.8837 20.825H23.0921C23.4272 20.825 23.6862 20.7148 23.8699 20.4951C24.0528 20.2755 24.1447 19.9544 24.1447 19.5335C24.1447 19.0977 24.0502 18.7504 23.8638 18.4896C23.6757 18.2324 23.4246 18.102 23.1104 18.0985H21.8837V20.825Z" fill="white"/>
</svg>
