<svg width="36" height="32" viewBox="0 0 36 32" fill="none" xmlns="http://www.w3.org/2000/svg">
<g clip-path="url(#clip0)">
<path d="M20.7647 12.8378C20.7647 11.495 19.8168 10.7536 18.1519 10.7536H15.0894V15.08H17.6718C19.6649 15.0739 20.7647 14.2719 20.7647 12.8378ZM31.9149 12.0601C31.3376 10.1825 31.2526 7.8795 31.3194 6.09912C31.3862 4.24582 29.9401 2.54443 27.9956 2.54443H8.01644C6.06592 2.54443 4.62581 4.2519 4.69265 6.09912C4.75342 7.8795 4.67443 10.1825 4.09717 12.0601C3.51383 13.9437 2.53554 15.1347 0.925293 15.2866V17.0184C2.52946 17.1703 3.51383 18.3613 4.09717 20.245C4.67443 22.1226 4.75949 24.4255 4.69265 26.2059C4.62581 28.0592 6.07199 29.7606 8.01644 29.7606H27.9895C29.9401 29.7606 31.3802 28.0531 31.3133 26.2059C31.2526 24.4255 31.3315 22.1226 31.9088 20.245C32.4921 18.3613 33.4704 17.1703 35.0746 17.0184V15.2866C33.4765 15.1347 32.4921 13.9437 31.9149 12.0601ZM18.7413 23.3925H12.7925V8.91249H18.7109C21.342 8.91249 23.0677 10.3344 23.0677 12.5219C23.0677 14.0592 21.9071 15.4325 20.4244 15.6694V15.7484C22.4418 15.9672 23.7968 17.3647 23.7968 19.291C23.7968 21.8491 21.8949 23.3925 18.7413 23.3925ZM18.1336 16.7875H15.0894V21.5514H18.2673C20.3454 21.5514 21.4453 20.7189 21.4453 19.1512C21.4453 17.5896 20.3151 16.7875 18.1336 16.7875Z" fill="#7952B3"/>
</g>
<defs>
<clipPath id="clip0">
<rect width="35" height="31.1111" fill="white" transform="translate(0.5 0.599976)"/>
</clipPath>
</defs>
</svg>
