<svg width="60" height="57" viewBox="0 0 60 57" fill="none" xmlns="http://www.w3.org/2000/svg">
<g filter="url(#filter0_d)">
<path d="M26.8977 12.3741H20.7031C17.5781 11.5545 10.5086 11.7678 10.5086 18.217C10.5086 20.5678 11.6805 22.2194 13.243 22.9827C11.282 24.7795 10.3523 25.6272 10.3523 26.8272C10.3523 27.6866 10.7016 28.4788 11.75 28.9217C10.6352 29.9694 10 30.7303 10 32.16C10 34.6686 12.1914 36.1303 17.9398 36.1303C23.4672 36.1303 26.6734 34.0663 26.6734 30.4131C26.6734 25.8303 23.1453 25.9991 14.8273 25.4913L15.8766 23.8077C18.007 24.3999 25.15 24.5889 25.15 18.5038C25.15 17.0428 24.5461 16.0264 23.9781 15.2952L26.9008 15.0733L26.8977 12.3741ZM21.943 31.2725C21.943 33.7772 13.7484 33.7803 13.7484 31.4624C13.7484 30.8264 14.1602 30.2905 14.5742 29.7795C20.6453 30.1936 21.943 30.0428 21.943 31.2725ZM17.9734 20.7584C13.8484 20.7584 14.0313 15.1991 18.0672 15.1991C21.9375 15.1991 22.0375 20.7584 17.9734 20.7584ZM28.3875 28.6108V26.103C30.4773 25.817 30.5156 25.9467 30.5156 25.2436V15.9069C30.5156 15.2428 30.3555 15.3303 28.3875 14.6366L28.7367 12.0647H35.3125V25.2452C35.3125 25.7538 35.3438 25.817 35.8211 25.8811L37.4406 26.103V28.6108H28.3875ZM32.4852 9.52407C30.675 9.52407 29.6266 8.47485 29.6266 6.66392C29.6266 4.85298 30.675 3.86938 32.4852 3.86938C34.3273 3.86938 35.3758 4.85532 35.3758 6.66392C35.3758 8.47251 34.3273 9.52407 32.4852 9.52407ZM50 27.3795C48.6336 28.0459 46.6328 28.6499 44.8219 28.6499C41.0422 28.6499 39.6133 27.1264 39.6133 23.5358V15.2147C39.6133 14.7913 39.6953 14.8975 37.1359 14.8975V12.0702C39.9312 11.7522 41.0422 10.3514 41.3914 6.89282H44.4094C44.4094 12.0358 44.3047 11.7217 44.6641 11.7217H49.1406V14.8975H44.4094V22.4874C44.4094 23.028 44.025 26.5038 49.1414 24.5842L50 27.3795Z" fill="black"/>
</g>
<defs>
<filter id="filter0_d" x="0" y="0" width="60" height="60" filterUnits="userSpaceOnUse" color-interpolation-filters="sRGB">
<feFlood flood-opacity="0" result="BackgroundImageFix"/>
<feColorMatrix in="SourceAlpha" type="matrix" values="0 0 0 0 0 0 0 0 0 0 0 0 0 0 0 0 0 0 127 0" result="hardAlpha"/>
<feOffset dy="10"/>
<feGaussianBlur stdDeviation="5"/>
<feComposite in2="hardAlpha" operator="out"/>
<feColorMatrix type="matrix" values="0 0 0 0 0 0 0 0 0 0 0 0 0 0 0 0 0 0 0.25 0"/>
<feBlend mode="normal" in2="BackgroundImageFix" result="effect1_dropShadow"/>
<feBlend mode="normal" in="SourceGraphic" in2="effect1_dropShadow" result="shape"/>
</filter>
</defs>
</svg>
