<svg width="60" height="60" viewBox="0 0 60 60" fill="none" xmlns="http://www.w3.org/2000/svg">
<g filter="url(#filter0_d)">
<path d="M23.379 32.0485C23.379 32.2098 23.1935 32.3388 22.9597 32.3388C22.6935 32.363 22.5081 32.234 22.5081 32.0485C22.5081 31.8872 22.6935 31.7582 22.9274 31.7582C23.1694 31.734 23.379 31.863 23.379 32.0485ZM20.871 31.6856C20.8145 31.8469 20.9758 32.0324 21.2177 32.0807C21.4274 32.1614 21.6694 32.0807 21.7177 31.9195C21.7661 31.7582 21.6129 31.5727 21.371 31.5001C21.1613 31.4437 20.9274 31.5243 20.871 31.6856ZM24.4355 31.5485C24.2016 31.6049 24.0403 31.7582 24.0645 31.9437C24.0887 32.1049 24.2984 32.2098 24.5403 32.1533C24.7742 32.0969 24.9355 31.9437 24.9113 31.7824C24.8871 31.6291 24.6694 31.5243 24.4355 31.5485ZM29.7419 0.645264C18.5565 0.645264 10 9.1372 10 20.3227C10 29.2662 15.629 36.9195 23.6694 39.613C24.7016 39.7985 25.0645 39.1614 25.0645 38.6372C25.0645 38.1372 25.0403 35.3791 25.0403 33.6856C25.0403 33.6856 19.3952 34.8953 18.2097 31.2824C18.2097 31.2824 17.2903 28.9356 15.9677 28.3307C15.9677 28.3307 14.121 27.0646 16.0968 27.0888C16.0968 27.0888 18.1048 27.2501 19.2097 29.1695C20.9758 32.2824 23.9355 31.3872 25.0887 30.8549C25.2742 29.5646 25.7984 28.6695 26.379 28.1372C21.871 27.6372 17.3226 26.984 17.3226 19.2259C17.3226 17.0082 17.9355 15.8953 19.2258 14.4759C19.0161 13.9517 18.3306 11.7904 19.4355 9.0001C21.121 8.47591 25 11.1775 25 11.1775C26.6129 10.7259 28.3468 10.492 30.0645 10.492C31.7823 10.492 33.5161 10.7259 35.129 11.1775C35.129 11.1775 39.0081 8.46784 40.6935 9.0001C41.7984 11.7985 41.1129 13.9517 40.9032 14.4759C42.1935 15.9033 42.9839 17.0162 42.9839 19.2259C42.9839 27.0082 38.2339 27.6291 33.7258 28.1372C34.4677 28.7743 35.0968 29.984 35.0968 31.8791C35.0968 34.5969 35.0726 37.9598 35.0726 38.6211C35.0726 39.1453 35.4435 39.7824 36.4677 39.5969C44.5323 36.9195 50 29.2662 50 20.3227C50 9.1372 40.9274 0.645264 29.7419 0.645264ZM17.8387 28.4598C17.7339 28.5404 17.7581 28.7259 17.8952 28.8791C18.0242 29.0082 18.2097 29.0646 18.3145 28.9598C18.4194 28.8791 18.3952 28.6936 18.2581 28.5404C18.129 28.4114 17.9435 28.3549 17.8387 28.4598ZM16.9677 27.8066C16.9113 27.9114 16.9919 28.0404 17.1532 28.1211C17.2823 28.2017 17.4435 28.1775 17.5 28.0646C17.5565 27.9598 17.4758 27.8307 17.3145 27.7501C17.1532 27.7017 17.0242 27.7259 16.9677 27.8066ZM19.5806 30.6775C19.4516 30.7824 19.5 31.0243 19.6855 31.1775C19.871 31.363 20.1048 31.3872 20.2097 31.2582C20.3145 31.1533 20.2661 30.9114 20.1048 30.7582C19.9274 30.5727 19.6855 30.5485 19.5806 30.6775ZM18.6613 29.492C18.5323 29.5727 18.5323 29.7824 18.6613 29.9678C18.7903 30.1533 19.0081 30.234 19.1129 30.1533C19.2419 30.0485 19.2419 29.8388 19.1129 29.6533C19 29.4678 18.7903 29.3872 18.6613 29.492Z" fill="black"/>
</g>
<defs>
<filter id="filter0_d" x="0" y="0" width="60" height="61.2903" filterUnits="userSpaceOnUse" color-interpolation-filters="sRGB">
<feFlood flood-opacity="0" result="BackgroundImageFix"/>
<feColorMatrix in="SourceAlpha" type="matrix" values="0 0 0 0 0 0 0 0 0 0 0 0 0 0 0 0 0 0 127 0" result="hardAlpha"/>
<feOffset dy="10"/>
<feGaussianBlur stdDeviation="5"/>
<feComposite in2="hardAlpha" operator="out"/>
<feColorMatrix type="matrix" values="0 0 0 0 0 0 0 0 0 0 0 0 0 0 0 0 0 0 0.25 0"/>
<feBlend mode="normal" in2="BackgroundImageFix" result="effect1_dropShadow"/>
<feBlend mode="normal" in="SourceGraphic" in2="effect1_dropShadow" result="shape"/>
</filter>
</defs>
</svg>
