<svg width="28" height="33" viewBox="0 0 28 33" fill="none" xmlns="http://www.w3.org/2000/svg">
<path d="M25 2.28992H3C1.34375 2.28992 0 3.63367 0 5.28992V27.2899C0 28.9462 1.34375 30.2899 3 30.2899H25C26.6562 30.2899 28 28.9462 28 27.2899V5.28992C28 3.63367 26.6562 2.28992 25 2.28992ZM15.2375 24.1274C15.2375 26.8524 13.6375 28.0962 11.3062 28.0962C9.2 28.0962 7.98125 27.0087 7.35625 25.6899L9.5 24.3962C9.9125 25.1274 10.2875 25.7462 11.1938 25.7462C12.0563 25.7462 12.6062 25.4087 12.6062 24.0899V15.1462H15.2375V24.1274ZM21.4625 28.0962C19.0187 28.0962 17.4375 26.9337 16.6688 25.4087L18.8125 24.1712C19.375 25.0899 20.1125 25.7712 21.4062 25.7712C22.4937 25.7712 23.1938 25.2274 23.1938 24.4712C23.1938 23.5712 22.4812 23.2524 21.275 22.7212L20.6187 22.4399C18.7188 21.6337 17.4625 20.6149 17.4625 18.4712C17.4625 16.4962 18.9688 14.9962 21.3125 14.9962C22.9875 14.9962 24.1875 15.5774 25.05 17.1024L23 18.4149C22.55 17.6087 22.0625 17.2899 21.3062 17.2899C20.5375 17.2899 20.05 17.7774 20.05 18.4149C20.05 19.2024 20.5375 19.5212 21.6688 20.0149L22.325 20.2962C24.5625 21.2524 25.8188 22.2337 25.8188 24.4337C25.8188 26.7962 23.9562 28.0962 21.4625 28.0962Z" fill="#F7DF1E"/>
</svg>
