<svg width="36" height="36" viewBox="0 0 36 36" fill="none" xmlns="http://www.w3.org/2000/svg">
<g clip-path="url(#clip0)">
<path d="M29.0879 12.6132C28.7188 12.4901 28.3496 12.3739 27.9805 12.2645C28.042 12.0116 28.0967 11.7587 28.1514 11.5057C28.9922 7.43152 28.4385 4.1571 26.5723 3.07703C24.7744 2.0448 21.8418 3.11804 18.875 5.70203C18.5811 5.95496 18.2939 6.22156 18.0205 6.48816C17.8359 6.31042 17.6445 6.13269 17.4531 5.96179C14.3428 3.20007 11.2256 2.03796 9.35938 3.12488C7.56836 4.16394 7.03516 7.24695 7.78711 11.1024C7.8623 11.4852 7.94434 11.8612 8.04004 12.244C7.60254 12.3671 7.17188 12.5038 6.76855 12.6473C3.11816 13.912 0.5 15.9081 0.5 17.9725C0.5 20.1053 3.28906 22.245 7.08301 23.5438C7.39062 23.6464 7.69824 23.7489 8.0127 23.8378C7.91016 24.2479 7.82129 24.6512 7.73926 25.0682C7.02148 28.8622 7.58203 31.87 9.37305 32.9022C11.2188 33.9686 14.3223 32.8749 17.3438 30.2294C17.583 30.0175 17.8223 29.7987 18.0615 29.5663C18.3623 29.8602 18.6768 30.1405 18.9912 30.4139C21.917 32.9296 24.8086 33.9481 26.5928 32.9159C28.4385 31.8495 29.04 28.6161 28.2607 24.6786C28.1992 24.3778 28.1309 24.0702 28.0557 23.7557C28.2744 23.6942 28.4863 23.6259 28.6982 23.5575C32.6426 22.2518 35.5 20.1395 35.5 17.9725C35.5 15.9012 32.8066 13.8915 29.0879 12.6132ZM19.8389 6.80945C22.3818 4.5946 24.7539 3.72644 25.834 4.34851C26.9893 5.0116 27.4336 7.69128 26.709 11.2118C26.6611 11.4442 26.6133 11.6698 26.5518 11.8954C25.0342 11.5536 23.4961 11.3075 21.9512 11.1708C21.0625 9.89929 20.0918 8.6825 19.0391 7.54089C19.3057 7.28796 19.5654 7.04871 19.8389 6.80945ZM11.9297 21.5204C12.2783 22.1151 12.6338 22.7098 13.0098 23.2909C11.9434 23.1747 10.8838 23.0038 9.83789 22.7782C10.1387 21.7938 10.5146 20.7753 10.9521 19.7362C11.2666 20.3378 11.5879 20.9325 11.9297 21.5204ZM9.8584 13.2968C10.8428 13.078 11.8887 12.9003 12.9756 12.7635C12.6133 13.3309 12.2578 13.912 11.9229 14.4999C11.5879 15.0809 11.2598 15.6757 10.9521 16.2772C10.5215 15.2587 10.1592 14.2606 9.8584 13.2968ZM11.7314 18.0067C12.1826 17.0634 12.6748 16.1405 13.1943 15.2313C13.7139 14.3221 14.2744 13.4403 14.8623 12.5721C15.8877 12.4969 16.9336 12.4559 18 12.4559C19.0664 12.4559 20.1191 12.4969 21.1377 12.5721C21.7188 13.4335 22.2725 14.3153 22.7988 15.2177C23.3252 16.12 23.8174 17.0428 24.2822 17.9794C23.8242 18.9227 23.332 19.8524 22.8057 20.7684C22.2861 21.6776 21.7324 22.5595 21.1514 23.4345C20.1328 23.5096 19.0732 23.5438 18 23.5438C16.9268 23.5438 15.8877 23.5096 14.8828 23.4481C14.2881 22.58 13.7275 21.6913 13.2012 20.7821C12.6748 19.8729 12.1895 18.9501 11.7314 18.0067ZM24.0771 21.5067C24.4258 20.9052 24.7539 20.2968 25.0752 19.6815C25.5127 20.6727 25.8955 21.6776 26.2305 22.7098C25.1709 22.9491 24.0977 23.1337 23.0176 23.2567C23.3867 22.6825 23.7354 22.0946 24.0771 21.5067ZM25.0615 16.2772C24.7402 15.6757 24.4121 15.0741 24.0703 14.4862C23.7354 13.9052 23.3867 13.3309 23.0244 12.7635C24.125 12.9003 25.1777 13.0848 26.1621 13.3104C25.8477 14.3221 25.4785 15.3065 25.0615 16.2772ZM18.0137 8.58679C18.7314 9.36609 19.4082 10.1864 20.0371 11.0341C18.6836 10.9725 17.3232 10.9725 15.9697 11.0341C16.6396 10.1522 17.3301 9.33191 18.0137 8.58679ZM10.084 4.39636C11.2324 3.72644 13.7822 4.68347 16.4688 7.06238C16.6396 7.21277 16.8105 7.37683 16.9883 7.54089C15.9287 8.6825 14.9512 9.89929 14.0557 11.1708C12.5107 11.3075 10.9795 11.5468 9.46191 11.8817C9.37305 11.5331 9.29785 11.1776 9.22266 10.8221C8.58008 7.51355 9.00391 5.01843 10.084 4.39636ZM8.40918 22.4159C8.12207 22.3339 7.8418 22.245 7.56152 22.1493C6.10547 21.6913 4.45117 20.9667 3.25488 20.0165C2.56445 19.538 2.09961 18.7997 1.96973 17.9725C1.96973 16.7216 4.12988 15.1219 7.24707 14.035C7.63672 13.8983 8.0332 13.7753 8.42969 13.6591C8.89453 15.1425 9.45508 16.5985 10.1045 18.0067C9.44824 19.4354 8.88086 20.912 8.40918 22.4159ZM16.3799 29.1151C15.252 30.1473 13.9463 30.9677 12.5244 31.5282C11.7656 31.8905 10.8906 31.9247 10.1113 31.6171C9.02441 30.9882 8.57324 28.5751 9.18848 25.328C9.26367 24.9452 9.3457 24.5624 9.44141 24.1864C10.9727 24.5145 12.5176 24.7401 14.083 24.8563C14.9854 26.1346 15.9766 27.3583 17.0361 28.5067C16.8174 28.7186 16.5986 28.9237 16.3799 29.1151ZM18.0547 27.454C17.3574 26.702 16.6602 25.868 15.9834 24.9725C16.6396 24.9999 17.3164 25.0136 18 25.0136C18.7041 25.0136 19.3945 24.9999 20.0781 24.9657C19.4492 25.8339 18.7725 26.661 18.0547 27.454ZM26.9893 29.5048C26.9277 30.3387 26.5176 31.118 25.8613 31.6444C24.7744 32.2733 22.457 31.453 19.9551 29.3065C19.668 29.0604 19.3809 28.7938 19.0869 28.5204C20.1328 27.3651 21.0967 26.1415 21.9717 24.8563C23.5371 24.7264 25.0957 24.4872 26.6338 24.1385C26.7021 24.4188 26.7637 24.6991 26.8184 24.9725C27.1533 26.4491 27.208 27.9872 26.9893 29.5048ZM28.2334 22.1561C28.042 22.2177 27.8506 22.2792 27.6523 22.3339C27.1738 20.8436 26.5859 19.3876 25.9092 17.9725C26.5654 16.578 27.1191 15.1425 27.584 13.6727C27.9395 13.7753 28.2812 13.8846 28.6094 13.994C31.7949 15.0878 34.0303 16.7147 34.0303 17.9589C34.0303 19.2987 31.6445 21.0282 28.2334 22.1561ZM18 21.1307C19.7295 21.1307 21.1309 19.7294 21.1309 17.9999C21.1309 16.2704 19.7295 14.869 18 14.869C16.2705 14.869 14.8691 16.2704 14.8691 17.9999C14.8691 19.7294 16.2705 21.1307 18 21.1307Z" fill="#61DAFB"/>
</g>
<defs>
<clipPath id="clip0">
<rect width="35" height="35" fill="white" transform="translate(0.5 0.5)"/>
</clipPath>
</defs>
</svg>
